<mxfile host="app.diagrams.net" modified="2022-02-14T15:01:15.548Z" agent="5.0 (Windows NT 10.0; Win64; x64) AppleWebKit/537.36 (KHTML, like Gecko) Chrome/98.0.4758.82 Safari/537.36" etag="dWZggd0t5UEDgVPWRv7V" version="16.5.6" type="github">
  <diagram id="Yxp9PoUnUxP1NaLP5iOf" name="Page-1">
    <mxGraphModel dx="1422" dy="762" grid="1" gridSize="10" guides="1" tooltips="1" connect="1" arrows="1" fold="1" page="1" pageScale="1" pageWidth="827" pageHeight="1169" math="0" shadow="0">
      <root>
        <mxCell id="0" />
        <mxCell id="1" parent="0" />
        <mxCell id="m-23ioZxau1tO63Z2RKs-1" value="" style="whiteSpace=wrap;html=1;aspect=fixed;" vertex="1" parent="1">
          <mxGeometry x="560" y="200" width="140" height="140" as="geometry" />
        </mxCell>
        <mxCell id="m-23ioZxau1tO63Z2RKs-2" value="Server deployment" style="text;html=1;align=center;verticalAlign=middle;resizable=0;points=[];autosize=1;strokeColor=none;fillColor=none;" vertex="1" parent="1">
          <mxGeometry x="570" y="170" width="120" height="20" as="geometry" />
        </mxCell>
        <mxCell id="m-23ioZxau1tO63Z2RKs-3" value="&lt;p style=&quot;line-height: 1.7 ; font-size: 10px&quot;&gt;&lt;b&gt;&lt;span&gt;bitsmagndockerid/&lt;/span&gt;&lt;br&gt;&lt;span&gt;bmlab-serverside:4.8&lt;/span&gt;&lt;/b&gt;&lt;/p&gt;" style="shape=hexagon;perimeter=hexagonPerimeter2;whiteSpace=wrap;html=1;fixedSize=1;" vertex="1" parent="1">
          <mxGeometry x="565" y="225" width="130" height="90" as="geometry" />
        </mxCell>
        <mxCell id="m-23ioZxau1tO63Z2RKs-10" value="" style="whiteSpace=wrap;html=1;aspect=fixed;" vertex="1" parent="1">
          <mxGeometry x="140" y="200" width="140" height="140" as="geometry" />
        </mxCell>
        <mxCell id="m-23ioZxau1tO63Z2RKs-11" value="Client deployment" style="text;html=1;align=center;verticalAlign=middle;resizable=0;points=[];autosize=1;strokeColor=none;fillColor=none;" vertex="1" parent="1">
          <mxGeometry x="155" y="170" width="110" height="20" as="geometry" />
        </mxCell>
        <mxCell id="m-23ioZxau1tO63Z2RKs-12" value="&lt;p style=&quot;line-height: 1.7 ; font-size: 10px&quot;&gt;&lt;b&gt;&lt;span&gt;bitsmagndockerid/&lt;/span&gt;&lt;br&gt;&lt;span&gt;bmlab-clientside&lt;/span&gt;&lt;/b&gt;&lt;/p&gt;" style="shape=hexagon;perimeter=hexagonPerimeter2;whiteSpace=wrap;html=1;fixedSize=1;" vertex="1" parent="1">
          <mxGeometry x="145" y="225" width="130" height="90" as="geometry" />
        </mxCell>
        <mxCell id="m-23ioZxau1tO63Z2RKs-13" value="" style="whiteSpace=wrap;html=1;aspect=fixed;" vertex="1" parent="1">
          <mxGeometry x="350" y="430" width="140" height="140" as="geometry" />
        </mxCell>
        <mxCell id="m-23ioZxau1tO63Z2RKs-14" value="Database deployment" style="text;html=1;align=center;verticalAlign=middle;resizable=0;points=[];autosize=1;strokeColor=none;fillColor=none;" vertex="1" parent="1">
          <mxGeometry x="355" y="400" width="130" height="20" as="geometry" />
        </mxCell>
        <mxCell id="m-23ioZxau1tO63Z2RKs-15" value="&lt;p style=&quot;line-height: 1.7 ; font-size: 10px&quot;&gt;&lt;b&gt;sql server&lt;/b&gt;&lt;/p&gt;" style="shape=hexagon;perimeter=hexagonPerimeter2;whiteSpace=wrap;html=1;fixedSize=1;" vertex="1" parent="1">
          <mxGeometry x="355" y="455" width="130" height="90" as="geometry" />
        </mxCell>
      </root>
    </mxGraphModel>
  </diagram>
</mxfile>
